PathFileType	4	(X/Y/Z)	C:\Users\italobelli\Desktop\GitHub\PTbot_officialCBL\Personal_Results\FLX02_noisy2.trc
DataRate	CameraRate	NumFrames	NumMarkers	Units	OrigDataRate	OrigDataStartFrame	OrigNumFrames
106.125000	106.125000	42	9	m	106.125000	744	850
Frame#	Time		gu		centelbow		EpL		centpxt8		centijc7		ij		ts		aa		ai
			X1	Y1	Z1	X2	Y2	Z2	X3	Y3	Z3	X4	Y4	Z4	X5	Y5	Z5	X6	Y6	Z6	X7	Y7	Z7	X8	Y8	Z8	X9	Y9	Z9

744	7.0012	-0.080196	-0.0095784	0.16764	-0.13405	-0.25173	0.19625	-0.11324	-0.24916	0.22075	-0.046816	-0.15316	-0.008669	-0.046816	0.031938	-0.008669	0	0	0	-0.13548	0.023844	0.047043	-0.1164	0.025839	0.16476	-0.14372	-0.089049	0.055573
745	7.0106	-0.080137	-0.0096052	0.16769	-0.13401	-0.25174	0.19622	-0.11322	-0.24918	0.22073	-0.046816	-0.15316	-0.008669	-0.046816	0.031938	-0.008669	0	0	0	-0.13544	0.023867	0.047082	-0.11636	0.025834	0.1648	-0.14368	-0.089017	0.055595
746	7.02	-0.080078	-0.0096319	0.16773	-0.13397	-0.25176	0.19618	-0.1132	-0.2492	0.22071	-0.046816	-0.15316	-0.008669	-0.046816	0.031938	-0.008669	0	0	0	-0.1354	0.023888	0.047123	-0.11631	0.025829	0.16484	-0.14365	-0.088987	0.055618
747	7.0294	-0.080019	-0.0096584	0.16778	-0.13393	-0.25177	0.19616	-0.11317	-0.24922	0.22071	-0.046816	-0.15316	-0.008669	-0.046816	0.031938	-0.008669	0	0	0	-0.13535	0.023908	0.047165	-0.11626	0.025824	0.16488	-0.14361	-0.088958	0.055642
748	7.0389	-0.079959	-0.0096848	0.16783	-0.13388	-0.25178	0.19614	-0.11314	-0.24924	0.22071	-0.046816	-0.15316	-0.008669	-0.046816	0.031938	-0.008669	0	0	0	-0.13531	0.023927	0.047208	-0.11621	0.025818	0.16493	-0.14358	-0.088932	0.055667
749	7.0483	-0.079898	-0.009711	0.16788	-0.13383	-0.2518	0.19613	-0.1131	-0.24926	0.22071	-0.046816	-0.15316	-0.008669	-0.046816	0.031938	-0.008669	0	0	0	-0.13527	0.023946	0.047252	-0.11616	0.025813	0.16497	-0.14355	-0.088908	0.055692
750	7.0577	-0.079837	-0.009737	0.16793	-0.13378	-0.25181	0.19613	-0.11306	-0.24928	0.22072	-0.046816	-0.15316	-0.008669	-0.046816	0.031938	-0.008669	0	0	0	-0.13523	0.023963	0.047298	-0.1161	0.025807	0.16501	-0.14351	-0.088885	0.055718
751	7.0671	-0.079776	-0.0097627	0.16798	-0.13372	-0.25183	0.19614	-0.11301	-0.2493	0.22074	-0.046816	-0.15316	-0.008669	-0.046816	0.031938	-0.008669	0	0	0	-0.13519	0.023979	0.047344	-0.11604	0.025802	0.16506	-0.14348	-0.088865	0.055745
752	7.0766	-0.079714	-0.0097881	0.16803	-0.13365	-0.25184	0.19615	-0.11296	-0.24933	0.22076	-0.046816	-0.15316	-0.008669	-0.046816	0.031938	-0.008669	0	0	0	-0.13515	0.023994	0.047392	-0.11598	0.025796	0.1651	-0.14344	-0.088845	0.055773
753	7.086	-0.079652	-0.0098131	0.16808	-0.13359	-0.25186	0.19617	-0.1129	-0.24935	0.22079	-0.046816	-0.15316	-0.008669	-0.046816	0.031938	-0.008669	0	0	0	-0.13511	0.024009	0.04744	-0.11592	0.02579	0.16515	-0.14341	-0.088828	0.055801
754	7.0954	-0.07959	-0.0098378	0.16813	-0.13352	-0.25188	0.19619	-0.11284	-0.24937	0.22082	-0.046816	-0.15316	-0.008669	-0.046816	0.031938	-0.008669	0	0	0	-0.13508	0.024023	0.047489	-0.11585	0.025785	0.16519	-0.14338	-0.088812	0.05583
755	7.1048	-0.079528	-0.0098622	0.16818	-0.13344	-0.25189	0.19622	-0.11277	-0.24939	0.22086	-0.046816	-0.15316	-0.008669	-0.046816	0.031938	-0.008669	0	0	0	-0.13504	0.024035	0.047539	-0.11579	0.025779	0.16524	-0.14334	-0.088797	0.05586
756	7.1143	-0.079465	-0.009886	0.16823	-0.13337	-0.25191	0.19626	-0.1127	-0.24942	0.2209	-0.046816	-0.15316	-0.008669	-0.046816	0.031938	-0.008669	0	0	0	-0.13501	0.024048	0.04759	-0.11572	0.025773	0.16528	-0.14331	-0.088784	0.05589
757	7.1237	-0.079403	-0.0099095	0.16828	-0.13329	-0.25193	0.1963	-0.11263	-0.24944	0.22095	-0.046816	-0.15316	-0.008669	-0.046816	0.031938	-0.008669	0	0	0	-0.13497	0.024059	0.047642	-0.11565	0.025767	0.16533	-0.14328	-0.088772	0.055921
758	7.1331	-0.07934	-0.0099324	0.16833	-0.13321	-0.25194	0.19635	-0.11255	-0.24946	0.221	-0.046816	-0.15316	-0.008669	-0.046816	0.031938	-0.008669	0	0	0	-0.13494	0.02407	0.047694	-0.11558	0.025762	0.16537	-0.14324	-0.088761	0.055953
759	7.1425	-0.079278	-0.0099549	0.16838	-0.13312	-0.25196	0.1964	-0.11246	-0.24948	0.22106	-0.046816	-0.15316	-0.008669	-0.046816	0.031938	-0.008669	0	0	0	-0.1349	0.02408	0.047747	-0.11551	0.025756	0.16542	-0.14321	-0.088751	0.055985
760	7.1519	-0.079215	-0.0099767	0.16843	-0.13303	-0.25198	0.19646	-0.11238	-0.24951	0.22112	-0.046816	-0.15316	-0.008669	-0.046816	0.031938	-0.008669	0	0	0	-0.13487	0.02409	0.0478	-0.11543	0.02575	0.16547	-0.14318	-0.088742	0.056018
761	7.1614	-0.079153	-0.009998	0.16848	-0.13294	-0.252	0.19652	-0.11229	-0.24953	0.22118	-0.046816	-0.15316	-0.008669	-0.046816	0.031938	-0.008669	0	0	0	-0.13484	0.024099	0.047854	-0.11536	0.025744	0.16551	-0.14314	-0.088734	0.056052
762	7.1708	-0.079091	-0.010019	0.16853	-0.13285	-0.25201	0.19659	-0.1122	-0.24955	0.22125	-0.046816	-0.15316	-0.008669	-0.046816	0.031938	-0.008669	0	0	0	-0.13481	0.024108	0.047909	-0.11529	0.025738	0.16556	-0.14311	-0.088727	0.056086
763	7.1802	-0.079028	-0.010039	0.16858	-0.13275	-0.25203	0.19666	-0.1121	-0.24957	0.22133	-0.046816	-0.15316	-0.008669	-0.046816	0.031938	-0.008669	0	0	0	-0.13478	0.024116	0.047964	-0.11521	0.025733	0.16561	-0.14308	-0.088721	0.05612
764	7.1896	-0.078967	-0.010058	0.16863	-0.13265	-0.25205	0.19674	-0.112	-0.24959	0.2214	-0.046816	-0.15316	-0.008669	-0.046816	0.031938	-0.008669	0	0	0	-0.13475	0.024124	0.048019	-0.11513	0.025727	0.16565	-0.14305	-0.088716	0.056155
765	7.1991	-0.078905	-0.010077	0.16868	-0.13255	-0.25206	0.19682	-0.1119	-0.24961	0.22149	-0.046816	-0.15316	-0.008669	-0.046816	0.031938	-0.008669	0	0	0	-0.13472	0.024132	0.048074	-0.11506	0.025721	0.1657	-0.14302	-0.088711	0.056191
766	7.2085	-0.078844	-0.010095	0.16873	-0.13245	-0.25208	0.19691	-0.11179	-0.24963	0.22157	-0.046816	-0.15316	-0.008669	-0.046816	0.031938	-0.008669	0	0	0	-0.13469	0.02414	0.04813	-0.11498	0.025716	0.16574	-0.14298	-0.088707	0.056227
767	7.2179	-0.078783	-0.010112	0.16878	-0.13234	-0.25209	0.197	-0.11168	-0.24965	0.22166	-0.046816	-0.15316	-0.008669	-0.046816	0.031938	-0.008669	0	0	0	-0.13466	0.024147	0.048186	-0.1149	0.02571	0.16579	-0.14295	-0.088704	0.056264
768	7.2273	-0.078722	-0.010128	0.16883	-0.13223	-0.25211	0.1971	-0.11157	-0.24967	0.22175	-0.046816	-0.15316	-0.008669	-0.046816	0.031938	-0.008669	0	0	0	-0.13464	0.024154	0.048242	-0.11482	0.025704	0.16584	-0.14292	-0.088701	0.056301
769	7.2367	-0.078662	-0.010144	0.16888	-0.13213	-0.25212	0.19719	-0.11146	-0.24969	0.22185	-0.046816	-0.15316	-0.008669	-0.046816	0.031938	-0.008669	0	0	0	-0.13461	0.024161	0.048298	-0.11474	0.025699	0.16588	-0.14289	-0.088698	0.056338
770	7.2462	-0.078602	-0.010158	0.16893	-0.13202	-0.25213	0.1973	-0.11135	-0.2497	0.22194	-0.046816	-0.15316	-0.008669	-0.046816	0.031938	-0.008669	0	0	0	-0.13459	0.024168	0.048354	-0.11467	0.025693	0.16593	-0.14286	-0.088696	0.056376
771	7.2556	-0.078543	-0.010172	0.16898	-0.1319	-0.25215	0.1974	-0.11123	-0.24972	0.22205	-0.046816	-0.15316	-0.008669	-0.046816	0.031938	-0.008669	0	0	0	-0.13456	0.024174	0.048411	-0.11459	0.025688	0.16598	-0.14283	-0.088694	0.056415
772	7.265	-0.078485	-0.010185	0.16903	-0.13179	-0.25216	0.19751	-0.11111	-0.24973	0.22215	-0.046816	-0.15316	-0.008669	-0.046816	0.031938	-0.008669	0	0	0	-0.13454	0.024181	0.048467	-0.11451	0.025683	0.16602	-0.1428	-0.088692	0.056453
773	7.2744	-0.078427	-0.010197	0.16908	-0.13168	-0.25217	0.19762	-0.11099	-0.24975	0.22226	-0.046816	-0.15316	-0.008669	-0.046816	0.031938	-0.008669	0	0	0	-0.13452	0.024188	0.048523	-0.11443	0.025677	0.16607	-0.14278	-0.08869	0.056493
774	7.2839	-0.07837	-0.010207	0.16912	-0.13156	-0.25218	0.19774	-0.11087	-0.24976	0.22236	-0.046816	-0.15316	-0.008669	-0.046816	0.031938	-0.008669	0	0	0	-0.1345	0.024195	0.048578	-0.11435	0.025672	0.16611	-0.14275	-0.088688	0.056532
775	7.2933	-0.078314	-0.010217	0.16917	-0.13144	-0.25219	0.19786	-0.11074	-0.24977	0.22248	-0.046816	-0.15316	-0.008669	-0.046816	0.031938	-0.008669	0	0	0	-0.13448	0.024202	0.048634	-0.11428	0.025667	0.16616	-0.14272	-0.088686	0.056572
776	7.3027	-0.078258	-0.010226	0.16922	-0.13133	-0.2522	0.19798	-0.11062	-0.24978	0.22259	-0.046816	-0.15316	-0.008669	-0.046816	0.031938	-0.008669	0	0	0	-0.13446	0.024209	0.048689	-0.1142	0.025662	0.1662	-0.14269	-0.088684	0.056613
777	7.3121	-0.078203	-0.010234	0.16927	-0.13121	-0.2522	0.1981	-0.11049	-0.24979	0.2227	-0.046816	-0.15316	-0.008669	-0.046816	0.031938	-0.008669	0	0	0	-0.13444	0.024217	0.048744	-0.11413	0.025657	0.16625	-0.14267	-0.088681	0.056653
778	7.3216	-0.078149	-0.01024	0.16931	-0.13109	-0.25221	0.19822	-0.11037	-0.2498	0.22282	-0.046816	-0.15316	-0.008669	-0.046816	0.031938	-0.008669	0	0	0	-0.13442	0.024225	0.048799	-0.11405	0.025653	0.16629	-0.14264	-0.088678	0.056694
779	7.331	-0.078096	-0.010246	0.16936	-0.13097	-0.25221	0.19835	-0.11024	-0.2498	0.22294	-0.046816	-0.15316	-0.008669	-0.046816	0.031938	-0.008669	0	0	0	-0.1344	0.024233	0.048853	-0.11398	0.025648	0.16633	-0.14262	-0.088675	0.056736
780	7.3404	-0.078044	-0.01025	0.16941	-0.13085	-0.25222	0.19848	-0.11011	-0.2498	0.22306	-0.046816	-0.15316	-0.008669	-0.046816	0.031938	-0.008669	0	0	0	-0.13439	0.024241	0.048907	-0.11391	0.025643	0.16638	-0.14259	-0.088672	0.056777
781	7.3498	-0.077993	-0.010253	0.16945	-0.13073	-0.25222	0.19861	-0.10998	-0.24981	0.22318	-0.046816	-0.15316	-0.008669	-0.046816	0.031938	-0.008669	0	0	0	-0.13437	0.02425	0.04896	-0.11384	0.025639	0.16642	-0.14257	-0.088668	0.056819
782	7.3592	-0.077942	-0.010255	0.1695	-0.13061	-0.25222	0.19874	-0.10985	-0.24981	0.22331	-0.046816	-0.15316	-0.008669	-0.046816	0.031938	-0.008669	0	0	0	-0.13436	0.024259	0.049012	-0.11377	0.025635	0.16646	-0.14254	-0.088663	0.056862
783	7.3687	-0.077893	-0.010255	0.16954	-0.13049	-0.25222	0.19888	-0.10972	-0.2498	0.22343	-0.046816	-0.15316	-0.008669	-0.046816	0.031938	-0.008669	0	0	0	-0.13434	0.024269	0.049064	-0.1137	0.025631	0.16651	-0.14252	-0.088658	0.056904
784	7.3781	-0.077845	-0.010254	0.16959	-0.13037	-0.25221	0.19901	-0.10959	-0.2498	0.22356	-0.046816	-0.15316	-0.008669	-0.046816	0.031938	-0.008669	0	0	0	-0.13433	0.024279	0.049115	-0.11363	0.025627	0.16655	-0.1425	-0.088652	0.056947
785	7.3875	-0.077799	-0.010252	0.16963	-0.13025	-0.25221	0.19915	-0.10946	-0.24979	0.22369	-0.046816	-0.15316	-0.008669	-0.046816	0.031938	-0.008669	0	0	0	-0.13432	0.02429	0.049166	-0.11357	0.025623	0.16659	-0.14248	-0.088645	0.05699
